<?xml version="1.0" encoding="utf-8"?>
<!-- Generator: Adobe Illustrator 23.0.1, SVG Export Plug-In . SVG Version: 6.00 Build 0)  -->
<svg version="1.1" id="Calque_1" xmlns="http://www.w3.org/2000/svg" xmlns:xlink="http://www.w3.org/1999/xlink" x="0px" y="0px"
	 viewBox="0 0 256 256" style="enable-background:new 0 0 256 256;" xml:space="preserve">
<style type="text/css">
	.st0{fill:none;stroke:#000;stroke-width:6;stroke-miterlimit:10;}
</style>
<path class="st0" d="M200.3,138.5c13.3,0.4,26.5,0.7,39.8,0.7"/>
<path class="st0" d="M173.7,137.1c4.4,0.1,8.9,0.2,13.3,0.3"/>
<path class="st0" d="M151.4,137.6c4.1-0.1,8.2-0.1,12.3-0.1"/>
<path class="st0" d="M122.9,137.6c5.1-0.1,10.2-0.1,15.3-0.1"/>
<path class="st0" d="M96.4,137.4c4.6,0,9.3,0,13.9,0.1"/>
<path class="st0" d="M68.4,137.5c5,0,10-0.1,15-0.1"/>
<path class="st0" d="M37.3,138.3c1.2,0,5.6-0.1,15.3-0.1"/>
<line class="st0" x1="11.3" y1="137.4" x2="18.1" y2="137.5"/>
<line class="st0" x1="8.7" y1="137.4" x2="21.6" y2="137.5"/>
<line class="st0" x1="212.7" y1="115.7" x2="243" y2="138.9"/>
<path class="st0" d="M243,142.1"/>
<path class="st0" d="M197.9,154.8"/>
<line class="st0" x1="243" y1="138.9" x2="215.1" y2="161.6"/>
</svg>
