<?xml version="1.0" encoding="utf-8"?>
<!-- Generator: Adobe Illustrator 23.0.1, SVG Export Plug-In . SVG Version: 6.00 Build 0)  -->
<svg version="1.1" id="Calque_1" xmlns="http://www.w3.org/2000/svg" xmlns:xlink="http://www.w3.org/1999/xlink" x="0px" y="0px"
	 viewBox="0 0 256 256" style="enable-background:new 0 0 256 256;" xml:space="preserve">
<style type="text/css">
	.st0{fill:none;stroke:#000;stroke-width:6;stroke-miterlimit:10;}
</style>
<path class="st0" d="M200.3,138.5c13.3,0.4,26.5,0.7,39.8,0.7"/>
<path class="st0" d="M163.7,137.5"/>
<path class="st0" d="M151.4,137.6"/>
<path class="st0" d="M152.1,137.6c5.1-0.1,10.2-0.1,15.3-0.1"/>
<path class="st0" d="M98.8,137.4c4.6,0,9.3,0,13.9,0.1"/>
<path class="st0" d="M50.3,136.5c5,0,10-0.1,15-0.1"/>
<path class="st0" d="M4.5,136.6c1.2,0,5.6-0.1,15.3-0.1"/>
<line class="st0" x1="212.7" y1="115.7" x2="243" y2="138.9"/>
<path class="st0" d="M243,142.1"/>
<path class="st0" d="M197.9,154.8"/>
<line class="st0" x1="243" y1="138.9" x2="215.1" y2="161.6"/>
<circle class="st0" cx="130.3" cy="137.7" r="0.9"/>
<circle class="st0" cx="82.3" cy="137.7" r="0.9"/>
<circle class="st0" cx="34.9" cy="137.4" r="0.9"/>
<ellipse class="st0" cx="184" cy="137.4" rx="0.5" ry="0.9"/>
</svg>
